<svg width="960" height="540" viewBox="0 0 960 540" fill="none" xmlns="http://www.w3.org/2000/svg">
  <defs>
    <linearGradient id="heroBg" x1="0" y1="0" x2="960" y2="540" gradientUnits="userSpaceOnUse">
      <stop stop-color="#0F172A"/>
      <stop offset="1" stop-color="#1E293B"/>
    </linearGradient>
  </defs>

  <rect width="960" height="540" rx="16" fill="url(#heroBg)"/>

  <text x="60" y="80" fill="#F8FAFC" font-family="system-ui, -apple-system, sans-serif" font-size="40" font-weight="700">AI Consul</text>
  <text x="60" y="120" fill="#94A3B8" font-family="system-ui, -apple-system, sans-serif" font-size="20">Privacy-first, real-time AI assistant for conversations,</text>
  <text x="60" y="148" fill="#94A3B8" font-family="system-ui, -apple-system, sans-serif" font-size="20">interviews, meetings, and educational sessions</text>

  <rect x="60" y="180" width="106" height="32" rx="16" fill="#312E81"/>
  <text x="80" y="201" fill="#A5B4FC" font-family="system-ui, -apple-system, sans-serif" font-size="13" font-weight="600">Local-first</text>
  <rect x="178" y="180" width="122" height="32" rx="16" fill="#1E3A5F"/>
  <text x="196" y="201" fill="#7DD3FC" font-family="system-ui, -apple-system, sans-serif" font-size="13" font-weight="600">Multi-window</text>
  <rect x="312" y="180" width="138" height="32" rx="16" fill="#14532D"/>
  <text x="332" y="201" fill="#86EFAC" font-family="system-ui, -apple-system, sans-serif" font-size="13" font-weight="600">Graceful fallback</text>
  <rect x="462" y="180" width="130" height="32" rx="16" fill="#44204A"/>
  <text x="482" y="201" fill="#D8B4FE" font-family="system-ui, -apple-system, sans-serif" font-size="13" font-weight="600">Mode-aware AI</text>

  <line x1="60" y1="240" x2="900" y2="240" stroke="#334155" stroke-width="1"/>

  <circle cx="80" cy="280" r="6" fill="#6366F1"/>
  <text x="100" y="286" fill="#CBD5E1" font-family="system-ui, -apple-system, sans-serif" font-size="16">Captures mic and optional system audio</text>
  <circle cx="80" cy="316" r="6" fill="#6366F1"/>
  <text x="100" y="322" fill="#CBD5E1" font-family="system-ui, -apple-system, sans-serif" font-size="16">Routes transcription across local and hybrid backends</text>
  <circle cx="80" cy="352" r="6" fill="#6366F1"/>
  <text x="100" y="358" fill="#CBD5E1" font-family="system-ui, -apple-system, sans-serif" font-size="16">Surfaces real-time suggestions in a companion overlay</text>
  <circle cx="80" cy="388" r="6" fill="#6366F1"/>
  <text x="100" y="394" fill="#CBD5E1" font-family="system-ui, -apple-system, sans-serif" font-size="16">Exposes privacy, cost, and engine controls to the user</text>

  <rect x="560" y="270" width="360" height="230" rx="12" fill="#1E293B" stroke="#334155" stroke-width="1"/>
  <rect x="580" y="290" width="180" height="90" rx="8" fill="#0F172A" stroke="#475569" stroke-width="1"/>
  <text x="620" y="325" fill="#E2E8F0" font-family="system-ui, -apple-system, sans-serif" font-size="13" font-weight="600">Main Window</text>
  <text x="620" y="348" fill="#64748B" font-family="system-ui, -apple-system, sans-serif" font-size="11">Session + controls</text>
  <rect x="580" y="394" width="180" height="90" rx="8" fill="#0F172A" stroke="#475569" stroke-width="1"/>
  <text x="620" y="429" fill="#E2E8F0" font-family="system-ui, -apple-system, sans-serif" font-size="13" font-weight="600">Transcript</text>
  <text x="620" y="452" fill="#64748B" font-family="system-ui, -apple-system, sans-serif" font-size="11">Live speech monitor</text>
  <rect x="776" y="290" width="126" height="194" rx="8" fill="#0F172A" stroke="#475569" stroke-width="1"/>
  <text x="796" y="325" fill="#E2E8F0" font-family="system-ui, -apple-system, sans-serif" font-size="13" font-weight="600">Companion</text>
  <rect x="792" y="348" width="94" height="24" rx="6" fill="#312E81"/>
  <text x="804" y="365" fill="#A5B4FC" font-family="system-ui, -apple-system, sans-serif" font-size="11">Suggestion 1</text>
  <rect x="792" y="380" width="94" height="24" rx="6" fill="#1E3A5F"/>
  <text x="804" y="397" fill="#7DD3FC" font-family="system-ui, -apple-system, sans-serif" font-size="11">Suggestion 2</text>
  <rect x="792" y="412" width="94" height="24" rx="6" fill="#14532D"/>
  <text x="804" y="429" fill="#86EFAC" font-family="system-ui, -apple-system, sans-serif" font-size="11">Suggestion 3</text>

  <text x="60" y="520" fill="#475569" font-family="system-ui, -apple-system, sans-serif" font-size="13">Electron + TypeScript + React + Python sidecar + whisper.cpp + Ollama</text>
</svg>
